<?xml version="1.0" encoding="UTF-8"?>
<svg height="2048" preserveAspectRatio="none" style="display: block;" version="1.1" viewBox="0 0 1590 2048" width="1590" xmlns="http://www.w3.org/2000/svg"><path d="M518.19 28.7 L732.4 28.58 L1078.67 28.77 c-0.1 17.01 -0.09 34.01 0.03 51.02 c33.74 -0.02 67.83 -0.3 101.54 0.08 c0.02 16.68 0.31 34.3 0.01 50.9 l76.34 -0.09 c0.06 16.82 0.33 34.19 0.13 50.97 c16.95 -0.17 33.9 -0.22 50.85 -0.15 l0.07 51.11 c7.84 -0.1 17.66 -0.48 25.33 -0.18 l0.07 50.67 L1358.74 283 c0.06 16.94 0.36 34.49 0.01 51.38 l25.06 0.06 l0.06 127.34 c16.92 -0.26 33.85 -0.27 50.77 -0.02 l0.29 330.89 c16.85 -0.3 33.7 -0.34 50.55 -0.13 l0.23 51.08 c16.94 -0.23 33.89 -0.32 50.84 -0.27 c0.17 17.09 0.22 34.19 0.15 51.28 l25.08 0.08 l0.15 1043.35 l-25.47 -0.05 l-0.07 25.61 l-25.32 -0.07 v25.46 c-8.15 0.01 -17.31 0.19 -25.38 -0.04 l-0.1 25.32 L538.41 2014.53 L253.77 2014.56 c-45.11 -0.01 -98.29 -1.45 -142.84 0.03 c0.04 -8.48 -0.04 -17.24 0.21 -25.7 c-8.54 0.13 -17.07 0.19 -25.61 0.18 L85.91 1963.35 L59.99 1963.57 c0.02 -8.25 -0.16 -17.33 0.2 -25.51 L34.46 1938.08 L34.61 894.41 c8.35 0.04 17.11 -0.06 25.42 0.22 L59.86 843.48 c15.13 -0.06 36.43 -0.73 51.03 0.11 L110.85 792.54 c14.91 -0.16 36.26 -0.73 51.02 0.05 L161.88 461.55 c16.76 0.02 34.31 -0.2 51 0.11 L212.85 334.19 c8.37 -0.02 16.87 -0.14 25.23 0.25 L237.96 283.11 c8.17 0.03 17.31 -0.13 25.39 0.39 c-0.05 -16.87 -0.31 -34.28 -0.05 -51.1 c8.67 -0.22 17.35 -0.19 26.02 0.09 L289.13 181.65 c16.92 -0.2 33.84 -0.2 50.76 -0.01 c-0.01 -4.42 -0.31 -15.04 0.15 -18.96 c1.78 -4.16 1.94 -21.68 2.3 -27.74 c18.17 1.47 31.94 1.69 50.17 0.43 c5.66 -0.39 16.94 0.63 21.94 -0.66 l1.17 -3.93 L416.31 130.1 c5.83 -5.83 0.12 -34.67 4.24 -47.15 l0.91 2.29 c7.38 -1.06 14.82 -1.56 22.27 -1.48 c16.89 0.09 54.33 3.65 72.62 0.73 c0.73 -0.12 1.28 -3.44 1.58 -4.65 c0.26 -17 -0.11 -34.25 0.25 -51.13 Z M594.63 317.4 c-0.87 3.9 -1.54 7.38 -2.9 11.15 c-12.74 3.82 -53.95 -0.16 -70.01 -0.02 c-0.82 -1.67 -1.61 -3.13 -2.16 -4.91 c-0.27 2.74 0.14 3.56 -1.27 5.38 l-0.29 5.27 c-2.65 1.24 -4.56 1.1 -7.46 1.18 l1.83 0.86 c0.65 11.48 -0.41 32.96 1.52 45.13 c-0.02 -0.13 2.95 3.29 3.26 3.65 c-7.62 0.49 -16.89 0.21 -24.64 0.18 c0.88 32.52 0.1 68.82 0.01 101.7 c-16.86 0.2 -33.71 0.22 -50.57 0.07 c0.65 34.43 0.06 70.72 0.06 105.32 L441.94 792.63 c28 -1.16 62.83 -0.31 91.45 -0.36 L718.95 792.29 c144.51 0.06 291.54 -1.49 435.81 0.21 L1154.66 486.95 l-50.89 0.15 L1103.84 385.34 c-4.95 -0 -21.51 0.55 -24.87 -1.03 l-0.34 -1.83 c1.62 -5.95 0.87 -40.28 0.8 -48.45 l-0.67 -1.1 c-1.28 -2.41 -1.13 -5.16 -1.27 -7.95 c-0.68 1.54 -0.78 1.72 -1.61 3.12 c-18.44 2.11 -40.13 2.42 -58.57 0.9 c-4.01 -0.33 -7.92 -0.45 -11.94 -0.51 c-1.59 -10.87 0.15 -40.4 -2.37 -44.45 c-6.9 -1.88 -69.53 -0.42 -82.66 -0.6 C812.22 282.01 702.6 284.89 594.61 283.33 L594.63 317.4 Z" fill="rgb(40,39,63)" transform="translate(0)"/>
<path d="M644.42 843.02 c28.46 -1.64 68.41 -0.26 97.95 -0.26 L933.6 842.74 l552.18 0.81 c0.09 8.57 1.08 44.1 -0.25 51.18 l25.46 0.08 l0.15 890.14 l-0.06 26.14 c0 33.28 0.47 67.82 -0.03 100.99 l-0.1 25.43 l-25.32 0.1 l-0.13 25.63 c-7.01 0.03 -17.32 -0.22 -24.09 0.15 c-9.13 2.47 -29.31 0.11 -39.42 0.33 c-96.73 2.09 -195.67 -2.23 -292.15 0.21 c-24.2 0.89 -53.23 0.13 -77.78 0.14 L897.38 1964.04 L412.5 1964.05 L182.97 1964.03 c-23.3 0.11 -49.57 -1.25 -72.04 -0.61 l0.03 -24.83 c-3.96 -1.24 -19.93 -0.83 -25.09 -0.84 c0.1 -8.49 0.13 -16.99 0.08 -25.48 c-0.72 -15.62 -0.16 -36.33 -0.15 -52.51 L85.76 1759.75 L85.39 1539.04 L85.23 1468.93 c0.03 -10.9 -0.4 -26.78 0.7 -37.21 L85.9 1377.83 L85.78 1252.15 c-0.07 -17.32 -0.01 -34.65 0.18 -51.97 L85.88 1199.2 L85.82 1149.12 L85.86 1098.09 l-0 -51.13 c-1.08 -6.64 -0.6 -40.28 -0.57 -48.38 c0.4 -34.63 0.57 -69.27 0.51 -103.9 l25.1 0.1 l0.01 -25.6 L110.85 843.51 c111.96 -0.85 223.93 -1.12 335.9 -0.8 L549.13 842.74 c14.24 0.08 31.53 1.51 45.05 0.79 c4.52 -0.88 42.72 -0.53 50.24 -0.5 Z" fill="rgb(101,80,111)" transform="translate(0)"/>
<path d="M1358.7 844.05 l101.39 -0 l-0.05 24.67 l25.08 0.13 c-0.08 7.34 -0.56 18.94 0.41 25.88 l25.46 0.08 l0.15 890.14 l-0.06 26.14 c0 33.28 0.47 67.82 -0.03 100.99 l-0.1 25.43 l-25.32 0.1 l-0.13 25.63 c-7.01 0.03 -17.32 -0.22 -24.09 0.15 c-9.13 2.47 -29.31 0.11 -39.42 0.33 c-96.73 2.09 -195.67 -2.23 -292.15 0.21 c0.3 -4.51 -0.05 -6.16 -0.74 -10.49 c-0.47 -12.72 -0.07 -27.85 -0.06 -40.76 c-2.91 -1.86 -43.84 -0.98 -50.18 -0.93 l-0.43 -24.2 c-8.64 0.05 -17.28 -0.07 -25.92 -0.35 l0.04 24.71 L1001.78 1911.9 l0.26 -24.37 c16.78 0.11 33.56 -0.02 50.34 -0.39 c0.37 -7.67 0.03 -16.89 -0.05 -24.68 c4.99 0 7.48 0.01 12.46 -0.71 c1 -6.92 0.58 -18.23 0.53 -25.54 l12.31 -0.07 c-0.01 5.97 -0.42 19.9 0.57 25.14 c1.13 -5.67 0.58 -27.53 0.53 -34.42 c-0.24 -22.32 -0.29 -44.64 -0.14 -66.96 l63.14 0.01 l0.25 24.43 l0.35 0.76 c1.99 -8.61 -2.16 -19.51 3.14 -24.63 c3.61 -0.59 4.67 -0.5 8.38 -0.35 c0.04 8.94 -0.7 98.29 0.71 101.26 c0.94 -3.71 0.67 -26.52 0.67 -31.25 l-0.06 -70.26 c13.15 -0.05 38.69 1.07 50.44 -0.5 c-5.47 -1.18 -19.63 -0.67 -25.82 -0.61 l0.37 -24.87 c-8.5 0 -17.01 -0.07 -25.51 -0.19 c-0.66 -14.42 -0.29 -34.85 0.06 -49.37 l25.49 0.05 c0.22 7.86 -0.07 16.59 -0.16 24.52 h25.46 l-0.18 -24.55 c6.89 0.03 19.52 0.47 25.89 -0.58 l0.04 -26.18 c-3.37 -1.51 -20.65 -0.89 -25.29 -0.85 c-0.69 -15.67 -0.34 -33.64 -0.36 -49.52 l-25.24 0.04 l-0.29 25.29 c-7.95 0.29 -17.07 0.13 -25.12 0.15 c0.46 16.36 -1.18 33.63 -1.24 50.54 c-7.73 0.15 -15.7 0.12 -23.45 0.17 c0.15 -16.93 -1.34 -33.81 -1.3 -51.22 l25.49 0.08 c0.31 -8.31 0.1 -16.83 0.01 -25.16 L1180.09 1607 c-0.32 -7.77 -0.17 -17.08 -0.22 -24.96 c-8.21 -0.23 -17.01 -0.14 -25.27 -0.2 l0.17 -25.71 c8.31 -0.18 16.87 -0.01 25.2 0.05 c0.19 8.38 0.14 17.07 0.19 25.48 l24.95 -0.18 c0.76 -33.37 0.35 -66.97 0.83 -100.41 c10.52 -0.04 42.07 0.39 50.92 -0.85 c-6.57 -1.5 -41.91 -0.68 -51.24 -0.57 c0.09 -7.87 0.52 -17.68 -0.43 -25.34 c-1.09 6.72 -0.69 18.1 -0.66 25.24 l-23.39 0.23 c0 -5.94 0.5 -19.62 -1.02 -24.66 l-1.18 -0.45 c-3.38 -2.02 -19.93 -1.18 -24.74 -1.12 c0.35 -8.27 0.31 -15.72 0.22 -23.97 c8.31 0.1 26.44 0.63 33.85 -0.68 c4.71 -0.36 12.62 -0.18 17.58 -0.23 c1.45 -6.15 -0.33 -40.42 -0.15 -50.72 c-16.12 0.92 -33.72 -1.2 -50.8 -1.13 c-0.33 -24.65 -0.85 -50.82 -0.06 -75.38 c8.41 0.32 16.82 0.4 25.22 0.25 c0.26 -16.58 -0.13 -34.35 -0.23 -51 l25.75 0.23 c-0.19 -16.72 0.96 -33.44 0.89 -50.43 c7.59 0.05 15 0.26 22.55 -0.53 c0.44 -0.19 1.41 -1.15 1.82 -1.52 c0.89 -6.11 0.41 -17.8 0.33 -24.36 c-5.73 -1.05 -18.96 -0.61 -25.31 -0.57 c-0.6 -15.39 -0.1 -34.76 -0.08 -50.45 l-25.5 0.18 l-0.25 25.51 c-8.38 -0.13 -16.76 -0.19 -25.14 -0.18 L1154.76 1123.4 l25.2 -0.37 l0.15 -50.52 l-25.55 0.17 l-0.03 -25.35 l-25.24 -0.17 c0.46 -8.17 0.29 -17.09 0.29 -25.33 l25.09 -0.12 c-0.35 -7.53 0.02 -17.87 0.1 -25.6 L1180.09 996.1 c0.32 -8.06 0.29 -16.9 0.42 -25.03 l25.15 -0.08 c-0.04 -9.26 0.13 -18.53 0.53 -27.79 c-1.21 -9.32 -0.56 -38.01 -0.53 -49 c-6.94 1.3 -42.06 0.5 -50.82 0.48 c-0.16 -5.39 -1.26 -21.83 1.23 -25.44 l2.41 -0.26 c10.06 -1.64 53.36 -0.59 65.53 -0.55 l134.77 -0.1 L1358.7 844.05 Z" fill="rgb(65,55,86)" transform="translate(0)"/>
<path d="M1358.7 844.05 l101.39 -0 l-0.05 24.67 l25.08 0.13 c-0.08 7.34 -0.56 18.94 0.41 25.88 l25.46 0.08 l0.15 890.14 l-0.06 26.14 c0 33.28 0.47 67.82 -0.03 100.99 l-0.1 25.43 l-25.32 0.1 l-0.13 25.63 c-7.01 0.03 -17.32 -0.22 -24.09 0.15 l-1.25 -0.33 l-25.36 0.11 l0.08 -50.7 l25.47 0.13 L1460.19 1759.79 l-25.33 -0.07 l-0.03 -25.63 l25.45 -0.07 l0.08 -315.75 l-0.07 -90.14 c-0.11 -15.94 -1.06 -36.94 -0.11 -52.21 c1.47 3.21 0.77 20.97 0.71 25.54 l24.84 -0.29 c0.23 -33.61 0.22 -67.23 -0.03 -100.84 l-25.92 0.09 l0.12 -51.78 l26.02 -0.06 l-0.12 -75.4 c-8.94 0.09 -17.26 0.2 -26.2 -0.26 c6.68 -1.05 19.2 -0.67 26.38 -0.66 c-0.58 -29.32 0.71 -59.76 0.33 -89.14 c-0.11 -8.27 0.66 -31.5 -0.83 -38.16 L1460.8 944.95 L1460.72 894.31 l-25.36 0.17 c-0.05 7.79 0.81 46.82 -1.11 50.51 c-0.16 -16.65 -0.08 -33.3 0.25 -49.95 c-8.24 0.1 -17.27 0.46 -25.39 -0.4 c6.96 -1.1 18.33 -0.73 25.69 -0.72 L1434.81 869 L1383.92 868.96 L1383.88 894.3 l-25.2 0.25 L1358.81 869.7 c-11.64 -1.19 -34.23 -0.52 -46.67 -0.52 l-99.96 0.05 c-15.52 0.03 -39.02 1 -53.7 -0.26 c10.06 -1.64 53.36 -0.59 65.53 -0.55 l134.77 -0.1 L1358.7 844.05 Z" fill="rgb(168,111,155)" transform="translate(0)"/>
<path d="M1485.31 1911.95 l25.74 0.13 l-0.1 25.43 l-25.32 0.1 l-0.13 25.63 c-7.01 0.03 -17.32 -0.22 -24.09 0.15 l-1.25 -0.33 l-0.01 -25.43 l25.36 0.18 l-0.2 -25.86 Z" fill="rgb(101,80,111)" transform="translate(0)"/>
<path d="M1511.14 1784.95 l-0.06 26.14 c-6.3 -0.45 -18.85 -0.06 -25.6 -0.03 l0.21 -25.96 c8.49 0.07 16.97 0.02 25.45 -0.15 Z" fill="rgb(101,80,111)" transform="translate(0)"/>
<path d="M1460.94 1149.65 l24.93 -0.14 l0.22 49.68 l-25.38 0.27 l0.23 -49.81 Z" fill="rgb(101,80,111)" transform="translate(0)"/>
<path d="M1460.32 1734.25 l25.38 -0.12 c0.05 8.46 -0.06 17.07 -0.1 25.54 l-25.11 -0.09 l-0.17 -25.33 Z" fill="rgb(65,55,86)" transform="translate(0)"/>
<path d="M1409.49 1072.23 c9.27 1.5 39.07 0.79 50.11 0.69 c8.94 0.46 17.26 0.35 26.2 0.26 l0.12 75.4 l-26.02 0.06 l-0.12 51.78 l25.92 -0.09 c0.25 33.61 0.26 67.23 0.03 100.84 l-24.84 0.29 c0.06 -4.57 0.76 -22.33 -0.71 -25.54 l-25.3 0.06 l0.04 -25.32 l-25.27 -0.07 l0.06 -25.7 h-25.78 l0.14 -50.72 l-25.62 0.1 c0.13 -17.04 0.12 -34.08 -0.01 -51.12 l25.49 0.09 l0.09 -25.28 l25.6 -0.01 l-0.13 -25.72 Z" fill="rgb(243,175,219)" transform="translate(0)"/>
<path d="M1078.59 1759.9 l63.14 0.01 l0.25 24.43 l0.35 0.76 c-4.36 1.25 -8.53 0.95 -13.05 0.88 l-0.16 11.82 l-0.3 12.77 l-25.51 0.07 l-0.02 25.65 l38.79 -0.19 l-0.01 25.24 L1078.2 1861.28 c1.13 -5.67 0.58 -27.53 0.53 -34.42 c-0.24 -22.32 -0.29 -44.64 -0.14 -66.96 Z" fill="rgb(243,175,219)" transform="translate(0)"/>
<path d="M1103.36 1784.92 c11.1 0.04 28.03 0.47 38.62 -0.58 l0.35 0.76 c-4.36 1.25 -8.53 0.95 -13.05 0.88 l-0.16 11.82 c-7.67 -0.38 -17.87 -0.13 -25.72 -0.16 l-0.04 -12.72 Z" fill="rgb(101,80,111)" transform="translate(0)"/>
<path d="M1155.17 1759.87 c13.15 -0.05 38.69 1.07 50.44 -0.5 l0.06 25.65 L1180.2 1785.01 l-0.01 51.2 l25.29 -0.04 l0.08 25.16 l-51 0.05 c0.94 -3.71 0.67 -26.52 0.67 -31.25 l-0.06 -70.26 Z" fill="rgb(243,175,219)" transform="translate(0)"/>
<path d="M1180.09 996.1 l25.39 -0.04 c0.34 25.47 0.39 50.94 0.12 76.41 c-7.88 0 -17.73 -0.23 -25.47 0.11 L1180.2 1046.9 c-8.31 0.03 -16.99 0.19 -25.27 -0.05 L1154.83 1022 c8.08 -0.04 17.34 0.11 25.34 -0.18 c-0.04 -8.09 -0.33 -17.76 -0.08 -25.72 Z" fill="rgb(101,80,111)" transform="translate(0)"/>
<path d="M1205.19 1454.31 l76.88 -0.02 l-0.04 50.69 l-25.29 -0.03 l0.12 -24.73 c-6.57 -1.5 -41.91 -0.68 -51.24 -0.57 c0.09 -7.87 0.52 -17.68 -0.43 -25.34 Z" fill="rgb(243,175,219)" transform="translate(0)"/>
<path d="M1409.11 894.63 c8.12 0.86 17.15 0.5 25.39 0.4 c-0.33 16.65 -0.41 33.3 -0.25 49.95 l-24.99 0.13 l0.03 25.73 L1383.95 970.8 l-0.1 -50.82 l25.18 0.06 l0.08 -25.41 Z" fill="rgb(243,175,219)" transform="translate(0)"/>
<path d="M1180.06 1301.69 c8.39 0.1 17.02 0.32 25.39 0.12 l0.15 50.18 c-3.4 1.58 -20.83 0.86 -25.56 0.8 c0.08 -16.58 0.52 -34.63 0.02 -51.1 Z" fill="rgb(101,80,111)" transform="translate(0)"/>
<path d="M1485.48 944.97 c1.49 6.65 0.72 29.89 0.83 38.16 c0.38 29.38 -0.91 59.82 -0.33 89.14 c-7.18 -0.01 -19.7 -0.39 -26.38 0.66 c-11.04 0.1 -40.84 0.81 -50.11 -0.69 c4.76 -1.3 43.36 -0.56 50.57 -0.49 l0.04 -24.65 l24.67 -0.26 l0.2 -65.48 c0.03 -9.76 -0.43 -27.21 0.51 -36.38 Z" fill="rgb(101,80,111)" transform="translate(0)"/>
<path d="M1154.84 894.68 c-0.16 -5.39 -1.26 -21.83 1.23 -25.44 l2.41 -0.26 c14.68 1.26 38.18 0.29 53.7 0.26 l99.96 -0.05 c12.44 -0 35.03 -0.68 46.67 0.52 c-18.27 1.32 -44.85 0.5 -63.96 0.5 L1180.21 869.97 l0.04 23.66 c6.38 -0.03 19.67 -0.45 25.41 0.56 c-6.94 1.3 -42.06 0.5 -50.82 0.48 Z" fill="rgb(101,80,111)" transform="translate(0)"/>
<path d="M1205.67 1785.02 l12.62 0.01 l-0.07 51.01 l-12.46 0.05 l-0.09 -51.07 Z" fill="rgb(243,175,219)" transform="translate(0)"/>
<path d="M1180.22 1912.76 c33.83 -0.55 67.84 0.19 101.77 -0.21 l0.03 50.76 l-51.51 -0.07 l0.1 -25.82 c-16.49 0.5 -33.94 0.3 -50.5 0.37 l0.11 -25.03 Z" fill="rgb(168,111,155)" transform="translate(0)"/>
<path d="M1332.98 1378.06 l75.89 0.06 l-0.02 50.66 l-75.93 0.03 l0.06 -50.75 Z" fill="rgb(243,175,219)" transform="translate(0)"/>
<path d="M1333.04 1454.26 l75.84 -0.04 l0.04 50.91 l-76.04 -0.07 c-0.05 -16.94 0 -33.87 0.16 -50.8 Z" fill="rgb(243,175,219)" transform="translate(0)"/>
<path d="M1256.64 1378.08 l50.85 -0.03 l-0.04 50.52 c-13.38 0.86 -36.69 0.18 -50.8 0.21 l-0.01 -50.7 Z" fill="rgb(243,175,219)" transform="translate(0)"/>
<path d="M1333.21 1861.73 l25.68 -0.08 l-0.09 25.6 l-25.66 0.09 l0.07 -25.61 Z" fill="rgb(101,80,111)" transform="translate(0)"/>
<path d="M1282.27 1021.93 l25.21 0.02 c0.04 8.34 0.02 16.69 -0.05 25.03 l-25.23 0.15 l0.07 -25.2 Z" fill="rgb(127,92,129)" transform="translate(0)"/>
<path d="M644.42 843.02 c28.46 -1.64 68.41 -0.26 97.95 -0.26 L933.6 842.74 l552.18 0.81 c0.09 8.57 1.08 44.1 -0.25 51.18 c-0.97 -6.94 -0.49 -18.54 -0.41 -25.88 L1460.04 868.72 l0.05 -24.67 l-101.39 0 l0.08 24.27 l-134.77 0.1 c-12.17 -0.04 -55.47 -1.09 -65.53 0.55 l-2.41 0.26 c-2.49 3.61 -1.39 20.06 -1.23 25.44 c8.76 0.03 43.88 0.82 50.82 -0.48 c-0.03 10.99 -0.68 39.68 0.53 49 l-2.14 1.57 c-21.6 0.79 -54.56 0.37 -74.84 0.33 l0.03 25.7 L1103.75 970.79 l0.08 -25.78 l-25.09 0.02 c-1.77 -3 -0.99 -43.6 -0.95 -49.93 L850.13 894.53 c-0.02 6.17 -0.57 20.33 0.63 25.55 l24.12 0.01 l0.07 25.22 L900.04 945.3 L900.04 970.97 L925.45 970.93 l0.05 76.16 h-25.44 l-0.01 25.23 L875.09 1072.2 l-0.11 25.66 L849.6 1098.01 l0.03 -25.73 l-25.58 0.01 L824.03 1021.83 L823.92 996.07 L798.63 995.95 L772.28 996.01 l0.1 101.98 L747.57 1097.98 l0.05 25.27 c-25.44 0.15 -50.89 0.17 -76.33 0.05 l0.09 -25.5 l-25.62 0.18 c0.55 -5.12 0.23 -20.26 0.25 -26.1 c-16.96 -0.18 -34.47 0.39 -51.55 0.45 c-0.05 5.49 0.02 9.83 0.37 15.3 c0.31 3.36 0.77 6.73 0.55 10.08 c-0.32 16.58 -1.06 33.93 -0.88 50.43 c6.9 0.03 19.19 -0.28 25.6 0.76 c0.05 8.2 0.29 17.23 0.02 25.36 c-0.03 8.24 -0.17 16.71 0.09 24.93 c4.89 1.19 19.33 0.69 25.2 0.67 c-0 8.01 -0.23 17.3 0.03 25.2 l25.79 -0.04 L671.3 1199.8 l25.34 0.14 L696.7 1174.33 l25.37 -0.07 l-0.09 50.82 l25.38 0.07 l0.18 50.84 l25.03 -0.04 L772.5 1301.33 L747.33 1301.4 l0.15 25.71 L721.91 1327.08 l-0 25.51 L671.24 1352.55 l-0.02 24.92 L645.5 1377.52 c0.01 16.95 0.22 34.32 0.01 51.24 l-76.09 0.05 c-0.09 -8.27 0.08 -16.92 0.13 -25.23 l-25.83 0.05 L543.64 1377.55 L518.29 1377.48 l-0 -24.9 c-8.5 0.13 -17.21 0.05 -25.72 0.07 L492.66 1327 l-50.9 0.02 L441.63 1301.45 l-25.41 0.09 l0.11 -25.47 L390.97 1276.06 L390.96 1250.89 l25.3 0.05 l0.09 -51.07 l25.53 0.02 l-0.1 -25.46 L467 1174.32 l0.08 -25.31 h25.76 l0.11 -76.8 c-17.12 0.14 -34.25 0.19 -51.37 0.16 l-0.12 25.45 L416.04 1097.9 l0.08 25.56 c-16.85 -0.11 -33.7 -0.11 -50.55 0 L365.7 1097.85 L340.24 1097.82 L340.16 1072.29 l-25.33 0.05 c0.31 16.66 0.02 34.27 -0.02 51.01 l-25.76 0.01 l0.05 50.9 l-25.28 0.02 L263.8 1148.83 L238.38 1148.9 l-0.05 25.42 L212.61 1174.15 l-0.05 25.42 c-16.71 0.36 -34 0.15 -50.76 0.16 l0.05 -25.39 l25.97 0.11 l0.02 -51.24 l-25.91 0.15 L161.8 1148.73 l-24.97 0.18 c0.68 17.22 -0.85 33.49 -0.89 50.64 c-15.95 0.18 -34.45 1.26 -49.99 0.63 L85.88 1199.2 L85.82 1149.12 L85.86 1098.09 l-0 -51.13 c-1.08 -6.64 -0.6 -40.28 -0.57 -48.38 c0.4 -34.63 0.57 -69.27 0.51 -103.9 l25.1 0.1 l0.01 -25.6 L110.85 843.51 c111.96 -0.85 223.93 -1.12 335.9 -0.8 L549.13 842.74 c14.24 0.08 31.53 1.51 45.05 0.79 c4.52 -0.88 42.72 -0.53 50.24 -0.5 Z" fill="rgb(243,175,219)" transform="translate(0)"/>
<path d="M212.54 894.28 L263.69 894.24 L263.68 920.09 l-25.39 -0 c-0.02 16.88 -0.21 34.05 0.02 50.9 L212.86 971 L212.71 996.04 L187.41 996.1 L187.5 970.88 L136.25 970.91 L136.16 945.22 c-0 -5.56 -0.44 -20.61 0.84 -25.19 c-1.57 -3.16 -0.86 -20.91 -0.81 -25.63 c16.41 -0.44 36.09 1.96 51.59 0.05 L187.6 919.95 L212.59 919.92 L212.54 894.28 Z" fill="rgb(101,80,111)" transform="translate(0)"/>
<path d="M137 920.02 l24.88 0 L161.8 945.13 L136.16 945.22 c-0 -5.56 -0.44 -20.61 0.84 -25.19 Z" fill="rgb(243,175,219)" transform="translate(0)"/>
<path d="M849.12 868.89 L1053 868.8 c-0.08 8.43 -0.12 16.86 -0.11 25.29 l26.02 -0.02 c0.06 11.24 0.86 41.36 -0.17 50.96 c-1.77 -3 -0.99 -43.6 -0.95 -49.93 L850.13 894.53 c-0.02 6.17 -0.57 20.33 0.63 25.55 L849.45 919.32 c-0.93 -5.18 -0.42 -18.42 -0.34 -24.27 L797.97 895.01 L797.96 868.54 c4.55 -0.06 8.98 0.23 13.52 0.47 L849.12 868.89 Z" fill="rgb(168,111,155)" transform="translate(0)"/>
<path d="M811.47 869.01 L849.12 868.89 c0.84 3.44 0.52 20.47 0.51 25.07 L799.06 893.89 L799 869.63 c4.66 -0.02 7.85 -0.2 12.48 -0.63 Z" fill="rgb(101,80,111)" transform="translate(0)"/>
<path d="M136.89 843.99 c25.29 0.24 50.58 0.24 75.87 -0.02 L212.9 868.79 L161.86 868.74 L161.68 894.01 c6.19 -0.04 20.62 -0.47 26.09 0.43 c-15.5 1.91 -35.18 -0.49 -51.59 -0.05 c-0.05 4.72 -0.76 22.47 0.81 25.63 c-1.28 4.58 -0.84 19.63 -0.84 25.19 L110.8 945.2 l0.01 25.91 L86.32 971.15 c0.02 18.13 1.21 59.43 -0.46 75.81 c-1.08 -6.64 -0.6 -40.28 -0.57 -48.38 c0.4 -34.63 0.57 -69.27 0.51 -103.9 l25.1 0.1 l0.01 -25.6 c6.91 -0.54 18.59 -0.27 25.88 -0.29 L136.89 843.99 Z" fill="rgb(168,111,155)" transform="translate(0)"/>
<path d="M85.86 1046.96 c16.76 -0.06 33.52 -0.02 50.27 0.11 l0.08 76.1 c-4.79 -0.72 -20.08 -0.42 -25.63 -0.42 l0.11 -24.8 L85.86 1098.09 l-0 -51.13 Z" fill="rgb(101,80,111)" transform="translate(0)"/>
<path d="M110.85 843.51 c111.96 -0.85 223.93 -1.12 335.9 -0.8 L549.13 842.74 c14.24 0.08 31.53 1.51 45.05 0.79 c0.02 16.71 0.93 34.14 0.71 50.49 c-16.74 0.01 -33.79 -0.15 -50.5 0.04 c-0.01 -6.81 0.33 -18.86 -0.52 -25.23 l25.38 0.06 L569.3 843.92 L212.76 843.97 c-25.29 0.26 -50.58 0.26 -75.87 0.02 L136.79 868.88 c-7.3 0.02 -18.97 -0.25 -25.88 0.29 L110.85 843.51 Z" fill="rgb(101,80,111)" transform="translate(0)"/>
<path d="M644.42 843.02 c28.46 -1.64 68.41 -0.26 97.95 -0.26 L933.6 842.74 l552.18 0.81 c0.09 8.57 1.08 44.1 -0.25 51.18 c-0.97 -6.94 -0.49 -18.54 -0.41 -25.88 L1460.04 868.72 l0.05 -24.67 l-101.39 0 c-31.86 -0.69 -66.21 -0.13 -98.26 -0.14 l-191.89 -0 L644.11 844.03 l0.31 -1.01 Z" fill="rgb(101,80,111)" transform="translate(0)"/>
<path d="M85.86 1098.09 l24.82 -0.14 l-0.11 24.8 c5.56 0 20.85 -0.3 25.63 0.42 c-4.12 1.31 -20.23 0.68 -25.3 0.63 L110.7 1148.92 c-7.64 0.05 -17.43 -0.16 -24.88 0.2 L85.86 1098.09 Z" fill="rgb(168,111,155)" transform="translate(0)"/>
<path d="M594.18 843.53 c4.52 -0.88 42.72 -0.53 50.24 -0.5 l-0.31 1.01 c-16.28 0.21 -32.57 0.28 -48.86 0.2 l-0.17 24.6 L620.23 868.76 l0.03 25.92 c-25.63 0.32 -51.26 0.47 -76.9 0.44 c0.01 -6.94 -0.35 -19.87 0.52 -26.29 c0.85 6.36 0.51 18.42 0.52 25.23 c16.71 -0.19 33.76 -0.03 50.5 -0.04 c0.22 -16.34 -0.7 -33.78 -0.71 -50.49 Z" fill="rgb(168,111,155)" transform="translate(0)"/>
<path d="M594.1 1123.38 c-0.09 -12.5 -0.17 -23.32 0.74 -35.75 c0.31 3.36 0.77 6.73 0.55 10.08 c-0.32 16.58 -1.06 33.93 -0.88 50.43 c6.9 0.03 19.19 -0.28 25.6 0.76 c-12.01 1.18 -37.43 0.09 -50.62 0.05 L569.48 1123.34 l24.62 0.04 Z" fill="rgb(168,111,155)" transform="translate(0)"/>
<path d="M135.91 1174.46 c-0.05 -4.76 -0.69 -22.11 0.93 -25.55 c0.68 17.22 -0.85 33.49 -0.89 50.64 c-15.95 0.18 -34.45 1.26 -49.99 0.63 L85.88 1199.2 c5.79 0.46 18.78 0.09 25 0.08 L110.85 1174.27 l25.06 0.19 Z" fill="rgb(168,111,155)" transform="translate(0)"/>
<path d="M161.82 1047.08 l25.88 -0.01 l-0.06 25.75 l-25.78 0.05 L161.82 1047.08 Z" fill="rgb(101,80,111)" transform="translate(0)"/>
<path d="M600.38 1199.74 c6.4 -1.77 13.32 -1.6 19.83 -0.55 c4.89 1.19 19.33 0.69 25.2 0.67 c-0 8.01 -0.23 17.3 0.03 25.2 l-25.14 -0.1 l-0 -25.13 c-6.64 0.1 -13.27 0.07 -19.91 -0.09 Z" fill="rgb(168,111,155)" transform="translate(0)"/>
<path d="M136.04 1021.58 l25.81 -0.14 l-0.03 25.64 L136.13 1047.07 L136.04 1021.58 Z" fill="rgb(101,80,111)" transform="translate(0)"/>
<path d="M594.47 1174.16 l25.65 0.1 c-0.03 8.24 -0.17 16.71 0.09 24.93 c-6.51 -1.05 -13.43 -1.22 -19.83 0.55 h-3.93 c-3.53 -3.71 -2.07 -19.2 -1.98 -25.58 Z" fill="rgb(168,111,155)" transform="translate(0)"/>
<path d="M416.35 868.79 l76.44 0.13 l-0 25.49 L518.58 894.25 l0.02 25.77 L492.86 920.04 l0.02 25.34 L441.59 945.39 L441.58 920.04 L391.04 920.02 L390.97 894.33 L416.39 894.3 L416.35 868.79 Z" fill="rgb(101,80,111)" transform="translate(0)"/>
<path d="M671.14 919.83 c14.93 0.2 32.62 -0.87 47.07 0.2 l2.67 0.21 c2.71 3.86 1.42 43.16 1.41 50.64 L696.66 970.99 L696.63 996.15 L671.19 996.14 L671.12 971.03 c-16.77 0 -33.53 0.12 -50.3 0.35 c-0.07 6.64 0.15 18.51 -0.73 24.68 L594.6 996.07 L594.61 970.95 L607.48 970.91 c3.3 -0.54 8.8 -0.51 12.31 -0.6 L619.9 944.75 c16.95 -0.22 34.43 0.2 51.42 0.4 L671.14 919.83 Z" fill="rgb(168,111,155)" transform="translate(0)"/>
<path d="M718.21 920.03 l2.67 0.21 c2.71 3.86 1.42 43.16 1.41 50.64 L696.66 970.99 L696.63 996.15 L671.19 996.14 L671.12 971.03 l0.12 -25.9 L696.42 945.01 L696.57 920.54 c7.13 0.08 14.6 0.39 21.64 -0.52 Z" fill="rgb(101,80,111)" transform="translate(0)"/>
<path d="M594.61 970.95 L607.48 970.91 l12.31 0.54 c-0.02 6.82 -0.4 18.18 0.3 24.62 L594.6 996.07 L594.61 970.95 Z" fill="rgb(101,80,111)" transform="translate(0)"/>
<path d="M620.96 945.68 L646.05 945.57 L645.88 970.25 L620.81 970.43 c0.09 -8.25 0.14 -16.5 0.15 -24.75 Z" fill="rgb(101,80,111)" transform="translate(0)"/>
<path d="M289.03 996.14 c-0.3 7.77 -0.06 17.43 -0.06 25.35 l51.11 0.03 l-0 25.46 l-27.07 0.1 h-24.01 L288.95 1021.54 l-25.57 0.09 L263.36 996.09 l25.66 0.05 Z" fill="rgb(101,80,111)" transform="translate(0)"/>
<path d="M620.29 1250.82 l25.2 0.23 l0.04 25.09 l25.72 -0.13 l-0.1 25.67 c-16.96 0.07 -33.92 0.02 -50.88 -0.15 l0.02 -50.71 Z" fill="rgb(168,111,155)" transform="translate(0)"/>
<path d="M696.48 1047.12 l25.79 -0.01 l-0.06 25.77 L696.44 1072.85 c0.16 -8.43 0.04 -17.26 0.05 -25.73 Z" fill="rgb(101,80,111)" transform="translate(0)"/>
<path d="M594.4 1352.58 l25.77 0.04 l-0 25.39 l-25.6 0.09 L594.4 1352.58 Z" fill="rgb(168,111,155)" transform="translate(0)"/>
<path d="M289.05 970.95 L314.93 970.91 L314.85 996.17 c-8.35 -0.02 -17.55 -0.23 -25.82 -0.03 L289.05 970.95 Z" fill="rgb(101,80,111)" transform="translate(0)"/>
<path d="M569.54 1276.2 l24.86 -0.15 L594.29 1301.7 L569.5 1301.56 L569.54 1276.2 Z" fill="rgb(168,111,155)" transform="translate(0)"/>
<path d="M87.48 1250.7 c6.51 0.97 16.61 0.62 23.45 0.59 l0.01 24.98 l-0.02 21.37 c1.57 22.27 0.44 57.32 0.45 80.57 l24.4 0.1 l0.02 509.2 l26.06 -0.06 l0.06 25.04 c41.44 0.11 85.78 1.08 126.95 0.21 l0.18 24.63 l25.8 0.22 l0.22 -24.81 l149.4 -0.09 c17.59 -0.02 36.18 0.56 53.6 0.12 c0.03 16.48 -0.19 33.72 0.29 50.15 L390.78 1962.86 l0.11 -25.37 c-17.01 0.15 -34.02 0.16 -51.03 0.02 l0.08 25.27 c-16.97 0.04 -34.29 0.26 -51.23 0.1 l0.16 -25.07 L212.36 1937.57 l0.05 25.2 c-25.42 0.17 -50.84 0.17 -76.26 0.01 L136.08 1937.61 l-24.89 0.13 l-0.22 0.85 c-3.96 -1.24 -19.93 -0.83 -25.09 -0.84 c0.1 -8.49 0.13 -16.99 0.08 -25.48 c-0.72 -15.62 -0.16 -36.33 -0.15 -52.51 L85.76 1759.75 L85.39 1539.04 L85.23 1468.93 c0.03 -10.9 -0.4 -26.78 0.7 -37.21 L85.9 1377.83 L85.78 1252.15 l1.7 -1.45 Z" fill="rgb(168,111,155)" transform="translate(0)"/>
<path d="M87.48 1250.7 c6.51 0.97 16.61 0.62 23.45 0.59 l0.01 24.98 l-0.02 21.37 c-1.76 18 -0.53 60.14 -0.46 80.23 L85.9 1377.83 L85.78 1252.15 l1.7 -1.45 Z" fill="rgb(243,175,219)" transform="translate(0)"/>
<path d="M85.76 1759.75 L85.39 1539.04 L85.23 1468.93 c0.03 -10.9 -0.4 -26.78 0.7 -37.21 c1.45 24.83 0.35 59.56 0.37 85.15 L86.24 1709.1 l24.92 -0.3 l-0.18 51.11 L85.76 1759.75 Z" fill="rgb(101,80,111)" transform="translate(0)"/>
<path d="M85.96 1912.27 l25.03 -0.01 c-0.05 6.67 -0.51 19.3 0.19 25.48 l-0.22 0.85 c-3.96 -1.24 -19.93 -0.83 -25.09 -0.84 c0.1 -8.49 0.13 -16.99 0.08 -25.48 Z" fill="rgb(65,55,86)" transform="translate(0)"/>
<path d="M569.74 1912.67 c128.28 -1.3 259.27 -0.13 387.75 -0.01 l114.02 -0.1 c18.61 0.03 39.15 1.27 57.53 0.12 c-0.01 12.91 -0.41 28.04 0.06 40.76 c-0.01 3.16 0.22 5.26 -0.71 8.22 c-3.09 2.18 -45.15 1.26 -52.75 1.26 L972.2 1962.91 L645.57 1962.97 l0.16 -25.22 L569.67 1937.57 l0.07 -24.9 Z" fill="rgb(168,111,155)" transform="translate(0)"/>
<path d="M1015.27 1759.97 l49.96 -0.14 v25.1 l-12.88 0.05 l-0.09 51.31 l11.92 0.15 c0 7.39 -0.34 18.25 0.61 25.31 c-9.3 -1.25 -38.84 -0.33 -49.71 -0.34 l0.04 -25.17 l12.78 -0.1 l0.03 -51.26 l-12.66 -0.12 v-24.79 Z" fill="rgb(243,175,219)" transform="translate(0)"/>
<path d="M1129.57 1378.08 l50.45 0.15 v25.43 l25.24 -0.03 c-0.04 8.08 -0.33 17.09 0.59 25.04 c-4.96 0.05 -12.87 -0.13 -17.58 0.23 c-15.78 -1.24 -42.06 -0.29 -58.78 -0.14 l0.08 -50.68 Z" fill="rgb(243,175,219)" transform="translate(0)"/>
<path d="M1154.87 1454.61 c8.02 -0.08 16.05 -0.06 24.07 0.06 l1.18 0.45 c-0.9 15.27 -0.03 34.1 -0.06 49.89 l-50.51 -0.06 l-0.12 -25.13 l25.45 0.11 l-0.01 -25.32 Z" fill="rgb(243,175,219)" transform="translate(0)"/>
<path d="M518.41 1428.86 l51.01 -0.05 l-0.06 25.42 L518.21 1454.18 l0.2 -25.32 Z" fill="rgb(243,175,219)" transform="translate(0)"/>
<path d="M1078.75 1454.33 l50.49 0.03 l0.19 25.46 l-50.8 0.02 l0.12 -25.51 Z" fill="rgb(243,175,219)" transform="translate(0)"/>
<path d="M111.08 1225.26 l24.86 0.02 l0.17 50.63 c-7.16 0.08 -18.3 -0.12 -25.16 0.36 L110.94 1251.29 c-6.84 0.03 -16.95 0.38 -23.45 -0.59 c5.3 -1.05 17.51 -0.52 23.43 -0.44 l0.16 -25 Z" fill="rgb(168,111,155)" transform="translate(0)"/>
<path d="M594.46 1072.33 c17.08 -0.06 34.59 -0.63 51.55 -0.45 c-0.02 5.84 0.3 20.98 -0.25 26.1 c-1.67 -2.89 -0.87 -20.62 -0.81 -25.02 L620.08 1072.93 l0.04 24.88 l-24.74 -0.1 c0.22 -3.35 -0.24 -6.72 -0.55 -10.08 c-0.35 -5.47 -0.42 -9.81 -0.37 -15.3 Z" fill="rgb(168,111,155)" transform="translate(0)"/>
<path d="M798.63 995.95 l25.29 0.13 l0.1 25.76 c-6.47 -0.49 -18.66 -0.18 -25.54 -0.21 L798.63 995.95 Z" fill="rgb(168,111,155)" transform="translate(0)"/>
<path d="M1205.9 1658.11 c6.96 0.03 18.83 0.45 25.35 -0.52 l-0.04 26.18 c-6.01 -0.96 -18.76 -0.56 -25.3 -0.54 L1205.9 1658.11 Z" fill="rgb(243,175,219)" transform="translate(0)"/>
<path d="M1205.83 1174.6 c8 0.03 17.5 0.32 25.34 -0.52 c0.08 6.56 0.56 18.25 -0.33 24.36 c-0.41 0.37 -1.38 1.33 -1.82 1.52 c-6.23 -0.86 -16.56 -0.49 -23.13 -0.46 l-0.06 -24.9 Z" fill="rgb(243,175,219)" transform="translate(0)"/>
<path d="M951.35 1582.03 l50.7 -0.1 v25.23 l12.74 0.06 l0.15 76.22 L951.2 1683.49 l0.04 -10.81 c-0.13 -30.22 -0.09 -60.43 0.11 -90.65 Z" fill="rgb(243,175,219)" transform="translate(0)"/>
<path d="M976.01 1607.1 l26.04 0.06 c0.28 16.68 -0.02 33.99 -0.09 50.72 l-25.81 0.05 L976.01 1607.1 Z" fill="rgb(101,80,111)" transform="translate(0)"/>
<path d="M874.89 1582 l50.71 -0.06 l0.07 25.22 l12.72 -0.04 l-0.12 76.2 l-63.38 0.2 L874.87 1670 l0.02 -88 Z" fill="rgb(243,175,219)" transform="translate(0)"/>
<path d="M900.13 1607.19 l25.53 -0.03 l0.06 50.86 L900.09 1657.94 l0.03 -50.75 Z" fill="rgb(101,80,111)" transform="translate(0)"/>
<path d="M925.85 1759.87 l25.29 0.01 l-0.01 25.14 c3.93 -0.08 8.17 -0.66 11.47 1.08 c2.17 3.02 1.45 7.41 1.37 11.44 l12.31 -0.09 l0.06 -37.51 l25.63 -0.08 l0.15 101.46 l-10.47 0.05 L976.48 1861.29 L976.43 1836.17 l-12.6 -0.09 l0.06 -25.57 l-12.82 0.06 l0.05 50.67 l-25.3 0.15 L925.85 1759.87 Z" fill="rgb(243,175,219)" transform="translate(0)"/>
<path d="M772.87 1759.98 c16.89 -0.24 34.1 -0.14 51.01 -0.2 l0.02 25.18 l12.86 0.07 l-0.07 51.06 l-12.8 0.15 l-0.08 25.03 l-51.11 0.18 L772.87 1759.98 Z" fill="rgb(243,175,219)" transform="translate(0)"/>
<path d="M798.27 1784.95 l25.63 0.01 l12.86 0.07 l-0.07 51.06 l-12.8 0.15 l-25.6 0.08 L798.27 1784.95 Z" fill="rgb(101,80,111)" transform="translate(0)"/>
<path d="M823.89 1784.96 l12.86 0.07 l-0.07 51.06 l-12.8 0.15 c0.52 -16.01 0.03 -35.04 0 -51.28 Z" fill="rgb(243,175,219)" transform="translate(0)"/>
<path d="M314.99 1760 h25.05 l0.04 24.95 l25.42 0.02 l0.01 76.37 l-25.4 -0.09 L340.08 1835.97 l-25.22 0.07 l0.02 25.24 l-25.54 0.03 L289.32 1784.99 l25.51 -0.03 L314.99 1760 Z" fill="rgb(243,175,219)" transform="translate(0)"/>
<path d="M314.99 1760 h25.05 l0.04 24.95 l-0.04 26.18 L314.94 1811.12 L314.83 1784.96 L314.99 1760 Z" fill="rgb(101,80,111)" transform="translate(0)"/>
<path d="M314.99 1760 h25.05 l0.04 24.95 c-8.06 -0.21 -17.11 0 -25.25 0.01 L314.99 1760 Z" fill="rgb(243,175,219)" transform="translate(0)"/>
<path d="M722.06 1581.92 l25.42 -0.01 l0.04 101.6 h-25.27 c-0.94 -12.71 -0.23 -37.49 -0.19 -51.09 L696.4 1632.46 l-0.08 50.96 L671.3 1683.51 l0.06 -101.5 l24.92 -0.03 l0.09 25.27 l25.73 0.06 L722.06 1581.92 Z" fill="rgb(243,175,219)" transform="translate(0)"/>
<path d="M594.84 1582.01 l63.51 -0.13 L658.3 1607.19 L620.07 1607.12 c-0.15 3.76 -0.68 6.63 0.87 9.97 c4.89 4.49 16.9 2.21 25.14 2.14 l0.01 13.31 L620.02 1632.51 l0.09 25.43 l38.2 0.08 l0.06 25.49 c-20.65 0.42 -42.73 0.01 -63.49 0 L594.84 1582.01 Z" fill="rgb(243,175,219)" transform="translate(0)"/>
<path d="M849.56 1759.93 l63.45 -0.1 l-0.03 25.06 h-38.32 l0.03 12.81 l25.2 -0.06 L900 1810.47 l-25.24 0.07 c-0.09 7.61 -0.53 18.44 0.26 25.76 l38.05 -0.1 l-0.01 25.12 l-63.5 -0.05 l0 -101.34 Z" fill="rgb(243,175,219)" transform="translate(0)"/>
<path d="M518.59 1760.01 L582.19 1759.9 l0.05 25.04 l-38.91 -0.1 l0 12.82 L569.5 1797.51 l-0.11 13.04 L543.34 1810.48 l0.12 23.34 l0.21 1.07 c3.99 2.47 31.64 1.42 38.41 1.37 l0.03 25.07 L518.52 1861.4 L518.59 1760.01 Z" fill="rgb(243,175,219)" transform="translate(0)"/>
<path d="M798.33 1582.02 l50.63 -0.03 l0.12 25.13 l12.39 0.09 l0.09 11.84 l-12.52 0.14 l-0.06 13.27 L823.7 1632.5 l-0.16 25.46 l25.59 -0.12 l-0 25.68 L798.29 1683.45 L798.33 1582.02 Z" fill="rgb(243,175,219)" transform="translate(0)"/>
<path d="M823.59 1607.18 l25.48 -0.06 l12.39 0.09 l0.09 11.84 l-12.52 0.14 c-8.88 -0.11 -17.95 2.51 -24.22 -1.85 c-1.96 -3.01 -1.32 -6.36 -1.22 -10.16 Z" fill="rgb(101,80,111)" transform="translate(0)"/>
<path d="M849.07 1607.12 l12.39 0.09 l0.09 11.84 l-12.52 0.14 l0.04 -12.07 Z" fill="rgb(243,175,219)" transform="translate(0)"/>
<path d="M454.87 1759.96 l50.9 0.05 l0.12 24.74 l-38.99 0.12 l-0.04 51.39 l38.76 -0.12 c0.69 6.02 0.28 18.76 0.26 25.28 L454.91 1861.38 l0.04 -25.35 L442.14 1835.99 l-0.18 -51 l12.9 -0.01 l0.01 -25.02 Z" fill="rgb(243,175,219)" transform="translate(0)"/>
<path d="M518.71 1581.95 c20.95 -0.37 43.04 0 64.09 0 l0.08 25.04 l-13.59 0.14 l0.01 64.12 l-0.04 12.11 l-25.55 0.19 c0.26 -25.37 0.04 -51.01 0.01 -76.4 L518.76 1607.14 L518.71 1581.95 Z" fill="rgb(243,175,219)" transform="translate(0)"/>
<path d="M1028.05 1581.98 l62.72 -0.02 l-0.03 25.12 L1078.2 1607.2 v61.55 l-0.04 14.64 l-25.41 0.01 l-0.14 -76.24 l-24.49 -0.01 l-0.07 -25.17 Z" fill="rgb(243,175,219)" transform="translate(0)"/>
<path d="M874.82 1250.9 l25.29 -0.11 l0.07 51.04 l25.39 0.02 l-0 25.28 L899.75 1327.09 L874.71 1327.1 L874.8 1301.35 l-25.36 0.02 L849.33 1276.05 l25.59 0.01 L874.82 1250.9 Z" fill="rgb(243,175,219)" transform="translate(0)"/>
<path d="M378.24 1759.86 l50.95 0.02 L429.13 1784.8 L390.82 1784.71 l0.08 51.58 l25.6 -0.11 l12.65 -0.02 l-0.06 25.18 l-50.8 0.01 L378.24 1759.86 Z" fill="rgb(243,175,219)" transform="translate(0)"/>
<path d="M1103.78 1097.9 l25.08 -0.09 c-0.01 16.94 0.47 34.1 0.51 51.13 L1103.6 1148.76 l0.12 25.34 c-7.87 0.39 -17.17 0.16 -25.16 0.16 l0.06 -50.93 c8.29 0.1 16.87 -0.03 25.18 -0.05 L1103.78 1097.9 Z" fill="rgb(168,111,155)" transform="translate(0)"/>
<path d="M1154.83 1174.51 c16.6 -0.1 33.19 -0.05 49.79 0.17 l0.08 24.23 c-6.57 -0.1 -18.46 -0.61 -24.49 0.54 c0 4.75 0.29 14.96 -0.33 19.26 c-0.59 3.86 0.06 3.97 -2.11 6.27 c-11.41 1.11 -35.44 -0.11 -48.5 -0.04 l-0.18 -25.53 l25.4 0.19 l0.34 -25.09 Z" fill="rgb(65,55,86)" transform="translate(0)"/>
<path d="M467.32 1632.69 c12.68 -0.19 25.7 -0.05 38.41 -0.07 l0.04 25.02 l-12.81 0.12 l0.08 25.77 l-14.29 0.03 L442.02 1683.53 l0.04 -25.59 L467.2 1657.86 c-0.1 -8.25 0.07 -16.89 0.12 -25.17 Z" fill="rgb(243,175,219)" transform="translate(0)"/>
<path d="M314.89 1632.7 l37.88 -0.13 L352.7 1657.64 l-12.83 0.09 l0.05 25.7 L325.5 1683.51 l-36.32 0.03 l0 -25.66 l25.63 0.01 L314.89 1632.7 Z" fill="rgb(243,175,219)" transform="translate(0)"/>
<path d="M301.96 1581.95 l50.83 -0.08 l0.02 25.31 c-5.74 0.03 -34.77 -1.13 -37.96 1.08 l0.01 24.22 l-25.65 0.04 L289.24 1607.2 l12.67 -0.01 l0.04 -25.24 Z" fill="rgb(243,175,219)" transform="translate(0)"/>
<path d="M620.14 1810.86 c8.55 0.09 17.1 0.13 25.64 0.12 l0 50.36 L619.25 1861.33 l-24.42 0.01 l0.08 -25.07 l25.14 -0.08 l0.08 -25.33 Z" fill="rgb(243,175,219)" transform="translate(0)"/>
<path d="M594.78 1759.92 l27.97 0.11 h22.93 l0.06 24.74 l-25.57 0.1 l-0.04 25.99 L594.85 1810.69 L594.78 1759.92 Z" fill="rgb(243,175,219)" transform="translate(0)"/>
<path d="M696.36 1810.83 c8.52 0.12 17.05 0.13 25.57 0.02 l-0.1 50.47 l-23.87 0.04 l-26.56 0.01 l0.02 -25.2 l24.91 0.05 l0.02 -25.39 Z" fill="rgb(243,175,219)" transform="translate(0)"/>
<path d="M454.84 1581.95 l51.07 -0.07 l0.01 25.31 L466.91 1607.07 l0.01 25.35 l-24.88 0.14 l0.1 -25.21 l12.76 -0.11 L454.84 1581.95 Z" fill="rgb(243,175,219)" transform="translate(0)"/>
<path d="M340.17 1352.9 l50.73 0.02 l-0.01 24.57 c-5.4 -0.01 -20.96 -0.55 -25.41 0.76 l0.07 25.32 l-25.4 0.09 L340.17 1352.9 Z" fill="rgb(243,175,219)" transform="translate(0)"/>
<path d="M671.37 1759.94 l25.73 -0.03 l24.77 0.05 l0.04 24.96 h-25.28 l-0.27 25.91 c-8.31 -0.15 -16.63 -0.2 -24.94 -0.17 L671.37 1759.94 Z" fill="rgb(243,175,219)" transform="translate(0)"/>
<path d="M1053.02 1378.14 c6.65 -1.04 18.81 -0.58 25.94 -0.53 l0.16 26.06 l24.41 -0.06 c0.01 8.21 0.16 17.14 -0.04 25.28 h-24.99 l0.03 -24.7 c-4.48 0.03 -22.55 0.69 -25.57 -0.9 l0.06 -25.15 Z" fill="rgb(168,111,155)" transform="translate(0)"/>
<path d="M1053.02 1378.14 c8.11 0.72 16.68 0.45 24.86 0.39 l0.1 24.63 c-4.71 -0.01 -21.2 -0.33 -25.02 0.13 l0.06 -25.15 Z" fill="rgb(243,175,219)" transform="translate(0)"/>
<path d="M237.99 1327.03 l50.93 0.13 l0.16 25.64 c-17.03 -0.36 -34.06 -0.41 -51.08 -0.17 l-0.01 -25.6 Z" fill="rgb(243,175,219)" transform="translate(0)"/>
<path d="M390.89 1632.59 l25.44 0.02 l-0.02 50.77 l-25.36 0.09 L390.89 1632.59 Z" fill="rgb(243,175,219)" transform="translate(0)"/>
<path d="M925.48 1403.59 c17.01 0.07 34.02 0.03 51.03 -0.1 c0.01 5.73 0.46 20.33 -0.77 25.17 c-16.58 0.33 -33.65 0.1 -50.28 0.08 l0.01 -25.15 Z" fill="rgb(243,175,219)" transform="translate(0)"/>
<path d="M212.85 1607.22 l25.13 0.02 l0.14 50.56 L212.76 1657.78 l0.1 -50.56 Z" fill="rgb(243,175,219)" transform="translate(0)"/>
<path d="M212.94 1785.04 l25.04 0.02 c0.02 16.94 0.22 34.23 0.04 51.14 L212.79 1836.16 c0.17 -17.04 0.23 -34.08 0.15 -51.12 Z" fill="rgb(243,175,219)" transform="translate(0)"/>
<path d="M1002.25 1378.08 l25.27 -0.05 l-0.21 50.59 l-25.08 0.07 l0.02 -50.61 Z" fill="rgb(243,175,219)" transform="translate(0)"/>
<path d="M365.9 1581.99 l24.94 -0.13 l-0.1 50.66 L365.84 1632.47 L365.9 1581.99 Z" fill="rgb(243,175,219)" transform="translate(0)"/>
<path d="M238.12 1657.8 c8.49 0.12 16.98 0.15 25.47 0.08 l0.12 25.68 L238.27 1683.43 L238.12 1657.8 Z" fill="rgb(243,175,219)" transform="translate(0)"/>
<path d="M772.96 1428.82 l25.4 -0.05 l-0.04 25.44 l-25.3 0.1 L772.96 1428.82 Z" fill="rgb(243,175,219)" transform="translate(0)"/>
<path d="M238.03 1836.2 h25.55 l0.03 25.15 L237.88 1861.32 L238.03 1836.2 Z" fill="rgb(243,175,219)" transform="translate(0)"/>
<path d="M747.21 1403.75 l25.4 -0.23 l0.07 25.21 l-25.5 0.04 l0.03 -25.02 Z" fill="rgb(243,175,219)" transform="translate(0)"/>
<path d="M1002.01 970.88 l25.47 0.09 l-0.12 25.1 l-25.35 0.01 v-25.19 Z" fill="rgb(243,175,219)" transform="translate(0)"/>
<path d="M798.37 1480.01 L823.89 1479.9 l0.05 25.07 L798.36 1504.9 l0.02 -24.89 Z" fill="rgb(243,175,219)" transform="translate(0)"/>
<path d="M187.66 1657.95 l25.09 -0.17 c-0.27 8.22 -0.11 17.45 -0.15 25.74 l-25 -0.07 l0.05 -25.5 Z" fill="rgb(243,175,219)" transform="translate(0)"/>
<path d="M289.08 1352.8 l25.84 0.09 L314.9 1377.58 L289.08 1377.42 l-0 -24.62 Z" fill="rgb(243,175,219)" transform="translate(0)"/>
<path d="M187.28 1581.92 l25.23 0.02 l-0.02 25.11 l-25.26 0.08 l0.05 -25.21 Z" fill="rgb(243,175,219)" transform="translate(0)"/>
<path d="M416.48 1581.91 l12.49 0.08 c0.18 16.87 0.19 33.76 0.04 50.63 L416.43 1632.57 l0.06 -50.66 Z" fill="rgb(243,175,219)" transform="translate(0)"/>
<path d="M1104.17 1657.97 l24.67 0.06 l0.08 25.41 h-24.86 l0.11 -25.47 Z" fill="rgb(243,175,219)" transform="translate(0)"/>
<path d="M1155.11 1658 l24.88 -0.01 c0.04 8.38 0.26 16.92 0.39 25.32 l-25.39 -0.1 L1155.11 1658 Z" fill="rgb(243,175,219)" transform="translate(0)"/>
<path d="M1129.57 1148.99 l24.83 -0.02 l-0.07 25.17 c-7.69 0.38 -17.34 0.21 -25.18 0.26 c-0.15 -7.85 0.26 -17.45 0.42 -25.41 Z" fill="rgb(65,55,86)" transform="translate(0)"/>
<path d="M212.79 1836.16 c-0.3 7.94 -0.15 17.12 -0.21 25.15 l-24.69 0.03 l-0 -25.04 l24.9 -0.14 Z" fill="rgb(243,175,219)" transform="translate(0)"/>
<path d="M187.79 1759.94 l24.89 -0.02 l-0.05 24.95 l-24.82 0.05 L187.79 1759.94 Z" fill="rgb(243,175,219)" transform="translate(0)"/>
<path d="M1130.03 1097.85 l24.71 -0.19 l-0.34 25.3 c-7.81 0.53 -16.29 0.16 -24.17 0 l-0.2 -25.11 Z" fill="rgb(65,55,86)" transform="translate(0)"/>
<path d="M1180.21 1199.45 c7.68 1.04 17.3 0.7 25.2 0.68 l-0.04 24.94 c-5.36 0.05 -20.09 1.33 -24.32 -1.35 c-0.95 -0.61 -0.98 -3.52 -1.17 -5.01 c0.62 -4.3 0.33 -14.51 0.33 -19.26 Z" fill="rgb(243,175,219)" transform="translate(0)"/>
<path d="M1129.55 1251.32 l24.87 -0.03 c0.24 7.96 0 16.61 -0.08 24.62 l-24.8 0.04 c-0.25 -8.54 -0.17 -16.12 0.01 -24.63 Z" fill="rgb(65,55,86)" transform="translate(0)"/>
<path d="M187.56 1352.99 l25.12 -0.08 c0.05 8.13 -0.06 16.42 -0.1 24.56 l-25.02 0.05 c0.15 -7.99 0.01 -16.5 -0 -24.53 Z" fill="rgb(243,175,219)" transform="translate(0)"/>
<path d="M1129.82 1226.11 l24.75 -0.14 c-0.2 7.66 -0.07 15.92 -0.08 23.63 c-3.86 1.15 -20.49 0.83 -25.34 0.84 l0.67 -24.33 Z" fill="rgb(127,92,129)" transform="translate(0)"/>
<path d="M1181.27 1657.88 l23.39 0.09 l-0.03 25.57 l-23.15 0.16 l-0.21 -25.82 Z" fill="rgb(65,55,86)" transform="translate(0)"/>
<path d="M849.22 1632.74 l12.36 -0.03 l0.09 25 l-12.53 0.13 l0.08 -25.1 Z" fill="rgb(243,175,219)" transform="translate(0)"/>
<path d="M874.58 79.81 c6.73 -1.29 25.57 -0.59 33.69 -0.68 c28.29 -0.33 56.32 0.05 84.59 0.86 c28.13 0.8 57.24 -0.38 85.43 0.14 c0.5 16.99 -0.2 33.23 0.11 49.83 c34.21 -0.13 67.69 0.96 101.8 0.83 l-0.12 50.88 L1231.04 181.5 l-0.07 25.42 l25.73 0.25 l0.11 25.13 l25.43 -0.2 l0.04 51 l25.06 0.27 c0.21 17.09 0.24 34.19 0.08 51.28 l25.63 -0.31 c-0.07 13.09 -0.05 26.17 0.06 39.26 c0.14 7.84 1.59 31.09 0.11 37 c-0.2 8.37 -0.18 16.73 0.05 25.1 c1.29 5.7 0.74 19.37 0.74 25.9 l49.79 0.22 c0.37 59.27 -0.51 119 0.25 178.13 c-0.01 33.43 -0.43 67.8 0 101.15 c-0.4 16.74 -0.03 34.5 0.04 51.31 l-178.34 -0 c1.09 -67.47 -0.16 -136.27 0.12 -203.91 c0.78 -32.63 0.05 -68.64 0.02 -101.52 l-25.6 0.01 L1154.78 486.97 c-0.33 -33.95 0.37 -67.76 -0.21 -101.82 l-25.42 0.07 L1129.36 334.1 L1079.43 334.03 l-0.67 -1.1 c-1.28 -2.41 -1.13 -5.16 -1.27 -7.95 c-0.68 1.54 -0.78 1.72 -1.61 3.12 c-18.44 2.11 -40.13 2.42 -58.57 0.9 c-4.01 -0.33 -7.92 -0.45 -11.94 -0.51 c-1.59 -10.87 0.15 -40.4 -2.37 -44.45 c-6.9 -1.88 -69.53 -0.42 -82.66 -0.6 C812.22 282.01 702.6 284.89 594.61 283.33 L594.63 317.4 c-0.87 3.9 -1.54 7.38 -2.9 11.15 c-12.74 3.82 -53.95 -0.16 -70.01 -0.02 c-0.82 -1.67 -1.61 -3.13 -2.16 -4.91 c-0.27 2.74 0.14 3.56 -1.27 5.38 l-0.29 5.27 c-15.69 -0.81 -34.84 -0.24 -50.78 -0.17 c0.18 17 0.19 34 0.04 51 l-25.4 0.04 L441.6 486.77 l-50.75 0.3 L390.78 792.21 L212.93 792.31 L212.79 716.04 c0.28 -16.5 0.08 -33.66 0.11 -50.21 l0.02 -0.97 c-0.42 -6.07 0 -18.66 0.05 -25.19 L212.89 588.98 L212.94 461.84 c16.82 -0.01 33.63 -0.72 50.59 -0.75 c-0.58 -42.03 -0.06 -84.57 -0.3 -126.73 l25.7 -0.08 L289.21 283.34 L315.12 283.4 c-0.2 -17.02 -0.26 -34.04 -0.2 -51.06 l24.89 0.11 L339.71 206.93 c8.56 0.18 17.38 0.06 25.97 0.06 c-0.23 -8.37 -0.08 -17.1 -0.06 -25.49 l50.73 0.33 c0.48 -16.05 -0.02 -34.77 -0.1 -51.03 c34.22 0.24 67.76 -1 102.13 -0.85 c-0.2 -16.62 -0.23 -33.24 -0.09 -49.86 c33.64 -0.41 68.01 0.08 101.82 -0.09 C695.68 80.13 773.66 81 849.08 79.9 c7.98 -0.02 17.65 0.22 25.5 -0.09 Z" fill="rgb(243,175,219)" transform="translate(0)"/>
<path d="M849.06 130.55 L874.7 130.63 L874.56 155.96 l75.8 -0.07 c0.14 8.58 0.38 17.15 0.71 25.72 l101.77 0.03 l-0.09 25.28 l25.71 0.08 l0.12 25.29 l25.14 0.12 l0.06 -25.49 l25.47 -0.07 c1.8 5.28 0.75 65.37 0.72 75.93 c16.09 0.01 34.67 0.64 50.43 0.16 l-0.17 25.71 l-0.09 25.57 l25.6 -0.01 l0.05 50.74 l51.17 0.02 l-0.11 51.32 l-25.9 -0.02 l0.11 25.42 L1205.73 461.62 c0.28 -16.96 0.23 -33.93 -0.15 -50.89 l-25.24 0.02 c-0.24 25.41 -0.26 50.82 -0.05 76.23 L1154.78 486.97 c-0.33 -33.95 0.37 -67.76 -0.21 -101.82 l-25.42 0.07 L1129.36 334.1 L1079.43 334.03 l-0.67 -1.1 c-1.28 -2.41 -1.13 -5.16 -1.27 -7.95 c-0.68 1.54 -0.78 1.72 -1.61 3.12 c-18.44 2.11 -40.13 2.42 -58.57 0.9 c-4.01 -0.33 -7.92 -0.45 -11.94 -0.51 c-1.59 -10.87 0.15 -40.4 -2.37 -44.45 c-6.9 -1.88 -69.53 -0.42 -82.66 -0.6 C812.22 282.01 702.6 284.89 594.61 283.33 L594.63 317.4 c-0.87 3.9 -1.54 7.38 -2.9 11.15 c-12.74 3.82 -53.95 -0.16 -70.01 -0.02 c-0.82 -1.67 -1.61 -3.13 -2.16 -4.91 c-0.27 2.74 0.14 3.56 -1.27 5.38 l-0.29 5.27 c-15.69 -0.81 -34.84 -0.24 -50.78 -0.17 c0.18 17 0.19 34 0.04 51 l-25.4 0.04 L441.6 486.77 l-50.75 0.3 L390.78 792.21 L212.93 792.31 L212.79 716.04 c16.1 0.44 34.33 0.03 50.59 0.03 L263.41 665.18 L288.97 665.15 l0.07 51.1 L263.47 716.15 c-0.39 24.91 0.01 50.8 0.05 75.79 l25.58 0.1 L289.04 767.01 l50.89 0.01 L339.88 435.96 l25.71 0 l-0 -76.22 l25.03 0.02 L390.67 334.14 l25.7 -0.03 L416.24 283.15 l25.74 0.01 L442.05 232.31 l50.64 0.02 L492.74 181.67 L518.17 181.7 l0.04 50.76 L543.77 232.31 L543.78 181.64 L619.9 181.68 L619.94 155.99 L849.13 155.92 L849.06 130.55 Z" fill="rgb(101,80,111)" transform="translate(0)"/>
<path d="M976.73 232.2 c6.18 1.16 18.18 0.69 24.89 0.64 l0.57 50.07 c7.87 0.01 17.96 -0.26 25.65 0.08 l15.13 -0.03 c9.96 0.84 25.08 0.26 35.45 0.15 l0.34 49.82 c-1.28 -2.41 -1.13 -5.16 -1.27 -7.95 c-0.68 1.54 -0.78 1.72 -1.61 3.12 c-18.44 2.11 -40.13 2.42 -58.57 0.9 c-4.01 -0.33 -7.92 -0.45 -11.94 -0.51 c-1.59 -10.87 0.15 -40.4 -2.37 -44.45 c-6.9 -1.88 -69.53 -0.42 -82.66 -0.6 C812.22 282.01 702.6 284.89 594.61 283.33 L594.63 317.4 c-0.87 3.9 -1.54 7.38 -2.9 11.15 c-12.74 3.82 -53.95 -0.16 -70.01 -0.02 c-0.82 -1.67 -1.61 -3.13 -2.16 -4.91 c-0.27 2.74 0.14 3.56 -1.27 5.38 c-0.84 -7.87 -0.14 -36.28 -0.24 -45.93 c25.09 0.37 51.09 -0.07 76.24 -0.17 L594.59 232.57 L976.73 232.2 Z" fill="rgb(40,39,63)" transform="translate(0)"/>
<path d="M976.61 206.76 c16.89 0.08 34.11 0.31 50.97 0.18 l0.25 25.13 l24.99 -0.03 c0 9.47 0.64 42.22 -0.52 49.01 c-2.59 1.81 -6.06 1.65 -9.33 1.91 l-15.13 0.03 c-7.69 -0.33 -17.78 -0.06 -25.65 -0.08 L1001.62 232.85 c-6.71 0.05 -18.7 0.52 -24.89 -0.64 c-0 -8.29 0.17 -17.21 -0.13 -25.45 Z" fill="rgb(168,111,155)" transform="translate(0)"/>
<path d="M976.73 232.2 c8.23 -0.8 17.48 -0.5 25.82 -0.45 l-0.01 26.13 l24.6 -0.23 c0.04 3.92 0.01 22.72 0.7 25.34 c-7.69 -0.33 -17.78 -0.06 -25.65 -0.08 L1001.62 232.85 c-6.71 0.05 -18.7 0.52 -24.89 -0.64 Z" fill="rgb(101,80,111)" transform="translate(0)"/>
<path d="M467.43 257.86 l25.15 0.07 l0.11 25.22 L468.12 283.13 c-1.19 4.42 -0.78 20.33 -0.76 25.66 L442.03 308.84 L441.98 283.16 c8.81 -0.13 15.75 1.75 23.76 -1.08 c2.44 -2.79 1.74 -3.33 2.1 -7.61 c-0.82 -4.85 -0.49 -11.54 -0.41 -16.61 Z" fill="rgb(243,175,219)" transform="translate(0)"/>
<path d="M1129.25 206.84 c1.8 5.28 0.75 65.37 0.72 75.93 c16.09 0.01 34.67 0.64 50.43 0.16 l-0.17 25.71 L1154.82 308.5 l0.04 -24.84 l-25.95 0.12 c-0.08 -22.85 -1.03 -54.4 0.34 -76.93 Z" fill="rgb(168,111,155)" transform="translate(0)"/>
<path d="M823.59 181.68 c16.5 -0.41 34.69 -0.07 51.31 -0.05 L874.6 207 L900.07 206.91 L900.06 181.64 c8.31 0.06 16.84 -0.08 25.17 -0.13 c-0.1 8.12 0.1 16.54 0.19 24.68 l0.02 25.63 L849.34 231.73 L849.2 207.03 L823.46 206.95 L823.59 181.68 Z" fill="rgb(168,111,155)" transform="translate(0)"/>
<path d="M365.96 512.33 c7.92 -0.2 16.37 -0.11 24.33 -0.15 c-0.26 34.06 -0.33 68.13 -0.21 102.19 L365.65 614.4 c-0.13 -34.02 -0.02 -68.05 0.31 -102.08 Z" fill="rgb(168,111,155)" transform="translate(0)"/>
<path d="M365.64 716.2 l24.7 0.05 v25.14 L365.62 741.47 L365.64 716.2 Z" fill="rgb(243,175,219)" transform="translate(0)"/>
<path d="M1332.27 436.11 l1 -0.43 c1.29 5.7 0.74 19.37 0.74 25.9 l49.79 0.22 c0.37 59.27 -0.51 119 0.25 178.13 c-0.01 33.43 -0.43 67.8 0 101.15 c-0.4 16.74 -0.03 34.5 0.04 51.31 l-178.34 -0 c1.09 -67.47 -0.16 -136.27 0.12 -203.91 c17.29 0.3 34.07 0.74 51.39 0.69 L1257.24 563.95 c11.44 0.17 40.71 1.01 50.29 -0.5 L1307.51 538.06 l25.64 -0.11 l-0.02 25.26 l25.53 -0.14 l0.17 -76.17 l-25.77 0.04 c0.04 -9.78 0.52 -43.32 -0.79 -50.82 Z" fill="rgb(101,80,111)" transform="translate(0)"/>
<path d="M1307.85 614.27 L1333.33 614.2 l-0.12 1.08 c-1.02 9.58 1.45 44.72 -1.29 48.92 c-2.53 0.25 -5.06 0.54 -7.59 0.85 L1307.94 664.97 c-1.51 3.86 -0.93 21.24 -0.93 26.22 l25.74 0.02 c0.02 7.24 -0.25 17.74 0.2 24.71 l-51.27 0.02 l0.13 25.37 L1256.91 741.2 L1256.86 639.57 c16.97 0.15 33.94 0.18 50.91 0.06 l0.08 -25.37 Z" fill="rgb(243,175,219)" transform="translate(0)"/>
<path d="M1333.33 614.2 c0.96 7.46 0.56 17.89 0.5 25.62 c16.16 -0.06 34.21 -0.51 50.22 0.12 c-0.01 33.43 -0.43 67.8 0 101.15 c-9.95 1.04 -39.69 0.49 -50.95 0.54 c0.1 -8.18 0.47 -17.66 -0.15 -25.72 c-0.45 -6.97 -0.18 -17.47 -0.2 -24.71 L1307.01 691.19 c0 -4.98 -0.58 -22.35 0.93 -26.22 l16.39 0.07 c2.53 -0.31 5.06 -0.6 7.59 -0.85 c2.74 -4.2 0.27 -39.34 1.29 -48.92 l0.12 -1.08 Z" fill="rgb(168,111,155)" transform="translate(0)"/>
<path d="M1307.94 664.97 l16.39 0.07 c1.93 0.79 4.95 -0.14 8.28 1.27 c1.05 5.41 0.61 17.74 0.57 23.78 L1308.12 690.06 c0.16 -8.36 0.1 -16.73 -0.18 -25.09 Z" fill="rgb(101,80,111)" transform="translate(0)"/>
<path d="M1333.8 690.77 l25 -0.01 l-0.03 25.4 c-7.67 0.24 -17.02 -0.04 -24.82 -0.1 L1333.8 690.77 Z" fill="rgb(101,80,111)" transform="translate(0)"/>
<path d="M1307.79 766.81 l51.01 0.03 l0.02 24.99 l-51.1 0.05 l0.07 -25.08 Z" fill="rgb(168,111,155)" transform="translate(0)"/>
<path d="M518.28 80.08 c33.64 -0.41 68.01 0.08 101.82 -0.09 c-0.23 8.41 -0.26 16.83 -0.1 25.25 L569.36 105.19 L569.31 130.86 L467.56 131.13 c-0.07 16.8 -0.06 33.6 0.04 50.4 L416.27 181.63 L416.21 206.87 L390.87 206.8 l0.09 25.48 L339.69 232.36 l0.05 50.82 L314.89 283.26 L314.74 334.32 L289.03 334.38 l0.02 50.65 l25.73 0.05 l-0.03 25.6 L289.07 410.81 L289.01 436.03 l25.76 -0.1 l-0.1 25.56 C298.5 461.47 279.67 461 263.73 461.96 c-0.33 16.94 0.33 33.06 0.17 49.75 c6.71 -0.05 18.94 -0.5 25.15 0.49 L289.01 537.89 L263.52 537.91 c-0.13 16.94 -0.11 33.88 0.06 50.82 L289.11 588.67 L288.94 614.3 c8.89 -0.44 17.27 -0.35 26.16 -0.28 L315.04 640.13 l-76.5 0.06 l0.2 25.53 c-6.58 -0.01 -19.68 -0.38 -25.84 0.1 l0.02 -0.97 c-0.42 -6.07 0 -18.66 0.05 -25.19 L212.89 588.98 L212.94 461.84 c16.82 -0.01 33.63 -0.72 50.59 -0.75 c-0.58 -42.03 -0.06 -84.57 -0.3 -126.73 l25.7 -0.08 L289.21 283.34 L315.12 283.4 c-0.2 -17.02 -0.26 -34.04 -0.2 -51.06 l24.89 0.11 L339.71 206.93 c8.56 0.18 17.38 0.06 25.97 0.06 c-0.23 -8.37 -0.08 -17.1 -0.06 -25.49 l50.73 0.33 c0.48 -16.05 -0.02 -34.77 -0.1 -51.03 c34.22 0.24 67.76 -1 102.13 -0.85 c-0.2 -16.62 -0.23 -33.24 -0.09 -49.86 Z" fill="rgb(101,80,111)" transform="translate(0)"/>
<path d="M212.89 588.98 c8.83 -0.41 16.6 -0.49 25.43 -0.45 L238.23 639.06 L313.9 638.98 L314.01 615.14 c-4.4 0.03 -22.18 0.7 -25.08 -0.84 c8.89 -0.44 17.27 -0.35 26.16 -0.28 L315.04 640.13 l-76.5 0.06 l0.2 25.53 c-6.58 -0.01 -19.68 -0.38 -25.84 0.1 l0.02 -0.97 c-0.42 -6.07 0 -18.66 0.05 -25.19 L212.89 588.98 Z" fill="rgb(168,111,155)" transform="translate(0)"/>
<path d="M212.97 639.66 c8.15 0.06 16.62 -0 24.74 0.18 l0.08 24.88 c-7.4 0.01 -17.68 -0.24 -24.87 0.13 c-0.42 -6.07 0 -18.66 0.05 -25.19 Z" fill="rgb(101,80,111)" transform="translate(0)"/>
<path d="M238.35 462.19 c8.46 0.14 16.92 0.06 25.38 -0.23 c-0.33 16.94 0.33 33.06 0.17 49.75 c6.71 -0.05 18.94 -0.5 25.15 0.49 c-7.12 0.87 -18.69 0.45 -26.17 0.4 L262.85 487.13 l-24.65 -0 L238.35 462.19 Z" fill="rgb(168,111,155)" transform="translate(0)"/>
<path d="M874.58 79.81 c6.73 -1.29 25.57 -0.59 33.69 -0.68 c28.29 -0.33 56.32 0.05 84.59 0.86 c28.13 0.8 57.24 -0.38 85.43 0.14 c0.5 16.99 -0.2 33.23 0.11 49.83 c34.21 -0.13 67.69 0.96 101.8 0.83 l-0.12 50.88 L1231.04 181.5 l-0.07 25.42 l25.73 0.25 l0.11 25.13 l25.43 -0.2 l0.04 51 l25.06 0.27 c0.21 17.09 0.24 34.19 0.08 51.28 l25.63 -0.31 c-0.07 13.09 -0.05 26.17 0.06 39.26 c0.14 7.84 1.59 31.09 0.11 37 c-0.84 -6.26 -0.5 -18.62 -0.5 -25.37 L1307.64 385.18 L1307.47 334.42 l-25.36 0.05 l0.08 -51.29 L1256.93 283.09 l-0.14 -50.8 L1205.87 232.21 l0.07 -25.37 l-25.67 0 L1180.2 181.61 L1129.22 181.54 l0.02 -50.52 c-42.21 0.41 -84.91 -0.35 -127.25 -0.24 L1001.98 105.3 L976.45 105.33 L976.56 80.27 L911.83 80.39 c-10.85 0.01 -26.75 0.39 -37.24 -0.57 Z" fill="rgb(101,80,111)" transform="translate(0)"/>
<path d="M1180.34 410.76 l25.24 -0.02 c0.38 16.96 0.43 33.92 0.15 50.89 l25.33 0.06 c0.03 41.88 0.49 84.68 -0.01 126.51 l25.23 -0.11 l0.04 -25.23 c9.48 0.01 44.2 -0.45 51.21 0.58 c-9.58 1.51 -38.85 0.67 -50.29 0.5 l0.02 25.23 c-17.32 0.05 -34.1 -0.39 -51.39 -0.69 c0.78 -32.63 0.05 -68.64 0.02 -101.52 l-25.6 0.01 c-0.21 -25.41 -0.19 -50.82 0.05 -76.23 Z" fill="rgb(168,111,155)" transform="translate(0)"/>
<path d="M1307.54 410.67 l25.68 -0.09 c-0.2 8.37 -0.18 16.73 0.05 25.1 l-1 0.43 c-6.07 0.51 -18.2 0.25 -24.73 0.29 v-25.73 Z" fill="rgb(101,80,111)" transform="translate(0)"/>
<path d="M849.08 79.9 c7.98 -0.02 17.65 0.22 25.5 -0.09 l0.09 25.52 L849.13 105.35 L849.08 79.9 Z" fill="rgb(101,80,111)" transform="translate(0)"/>
<path d="M1256.85 487.02 l25.09 -0.06 l0.03 25.69 L1256.9 512.7 L1256.85 487.02 Z" fill="rgb(101,80,111)" transform="translate(0)"/>
<path d="M518.28 329 c1.41 -1.82 1 -2.64 1.27 -5.38 c0.55 1.78 1.34 3.25 2.16 4.91 c16.06 -0.14 57.28 3.84 70.01 0.02 c1.36 -3.77 2.03 -7.25 2.9 -11.15 l0 16.86 c-24.2 0.07 -52.49 0.88 -76.27 0.05 c0.04 6.82 1.09 47.39 -1.21 50.77 c-0.31 -0.36 -3.28 -3.78 -3.26 -3.65 c-1.93 -12.17 -0.87 -33.65 -1.52 -45.13 L510.53 335.45 c2.9 -0.08 4.81 0.05 7.46 -1.18 L518.28 329 Z" fill="rgb(40,39,63)" fill-opacity="0.988235" transform="translate(0)"/>
<path d="M1003 284.04 c2.52 4.05 0.78 33.58 2.37 44.45 c4.02 0.06 7.93 0.18 11.94 0.51 c18.44 1.52 40.13 1.21 58.57 -0.9 c0.83 -1.41 0.93 -1.58 1.61 -3.12 c0.14 2.78 -0.01 5.53 1.27 7.95 l0.67 1.1 c0.07 8.16 0.82 42.5 -0.8 48.45 c-0.74 -15.13 -0.31 -32.79 -0.3 -48.11 L1002.05 334.27 c0.05 -10.24 -0.76 -41.79 0.95 -50.23 Z" fill="rgb(40,39,63)" fill-opacity="0.984314" transform="translate(0)"/>
<path d="M416.18 79.72 c31.25 -0.84 70.43 -0.59 101.75 0.11 c-0.3 1.21 -0.85 4.54 -1.58 4.65 c-18.29 2.92 -55.73 -0.63 -72.62 -0.73 c-7.45 -0.07 -14.9 0.42 -22.27 1.48 L420.55 82.95 c-4.12 12.48 1.58 41.33 -4.24 47.15 L416.18 79.72 Z" fill="rgb(40,39,63)" fill-opacity="0.984314" transform="translate(0)"/>
<path d="M339.87 130.71 c24.81 -0.08 51.06 -0.58 75.75 0.08 l-1.17 3.93 c-5 1.28 -16.29 0.27 -21.94 0.66 c-18.23 1.26 -32 1.04 -50.17 -0.43 c-0.36 6.06 -0.52 23.58 -2.3 27.74 c-0.57 -9.23 -0.18 -22.44 -0.17 -31.97 Z" fill="rgb(40,39,63)" fill-opacity="0.984314" transform="translate(0)"/>
</svg>
