<?xml version="1.0" encoding="UTF-8"?>
<svg height="180" version="1.1" width="180" xmlns="http://www.w3.org/2000/svg"><path d="M0 0 H50 V5 H59 V9 H66 V13 H71 V18 H73 V22 H75 V27 H77 V38 H82 V67 H86 V72 H91 V76 H93 V169 H91 v2 H88 v2 H86 v3 H-36 v-3 h-2 v-2 h-2 v-2 h-2 V76 h2 V72 h4 V67 h5 V38 h4 V27 h3 V22 h2 V18 h2 V13 h4 L-15 9 H-9 L-8 4 H0 Z M8 23 V28 H1 V32 H-1 V41 H-6 V67 H56 V41 H52 V32 H49 V28 H43 V23 Z" fill="#7D5E81" transform="translate(65 2)"/>
<path d="M0 0 H50 V5 H59 V9 H66 V13 H71 V18 H73 V22 H75 V27 H77 V38 H82 V67 H86 V72 H91 V76 H93 V169 H91 v2 H88 v2 H86 v3 H-36 v-3 h-2 v-2 h-2 v-2 h-2 V76 h2 V72 h4 V67 h5 V38 h4 V27 h3 V22 h2 V18 h2 V13 h4 L-15 9 H-9 L-8 4 H0 Z M8 23 V28 H1 V32 H-1 V41 H-6 V67 H56 V41 H52 V32 H49 V28 H43 V23 Z M-33 72 v2 H-35 v2 L-38 77 v91 l3 1 v2 H54 V166 H43 V164 h4 V162 H61 L62 155 L61 152 H59 V150 H57 V146 h2 V144 h2 v2 h2 V143 H61 V139 H59 V137 h2 V129 l7 1 V126 H61 v2 H59 V125 L61 124 V121 H59 V119 H56 V111 H54 V108 h4 l1 4 V108 h2 V104 h2 V101 H61 v2 H58 v3 H54 V103 h2 V101 H54 V99 H56 L55 94 H57 V97 H59 V92 H56 V90 H54 V88 H56 L59 85 V83 H61 V77 H57 V74 H75 V76 H77 V74 H81 V76 H79 V79 H77 V83 H79 V81 H86 V92 H79 V94 H77 V97 H75 v4 h2 v5 h2 v2 h2 v2 h2 L84 150 h2 v3 H84 V166 H81 v4 h2 V168 h3 V166 h2 V76 H86 V72 Z" fill="#27273E" transform="translate(65 2)"/>
<path d="M0 0 H50 V5 H59 V9 H66 V13 H71 V18 H73 V22 H75 V27 H77 V68 H61 V41 H52 V32 H49 V28 H43 V23 H8 V28 H1 V32 H-1 V41 H-10 V68 H-27 V27 h3 V22 h2 V18 h2 V13 h4 L-15 9 H-9 L-8 4 H0 Z" fill="#74597A" transform="translate(65 2)"/>
<path d="M0 0 H112 V4 H114 V94 H112 v2 H109 v2 H107 V94 h3 V81 h2 V78 H110 L109 38 H107 V36 H105 V34 H103 V29 H101 V25 h2 V22 h2 V20 h7 V9 H105 v2 H103 V7 H105 V4 H107 V2 H103 V4 H101 V2 H83 V5 H87 V9 H80 V11 H78 V9 H76 V4 H74 V2 H51 V5 H56 V7 H58 V9 H60 V11 H62 V18 H60 V20 H58 V22 H56 V20 H54 V13 H49 V23 H47 V25 H40 V23 H38 V20 H33 V25 H31 V27 H36 V31 H38 V34 H40 V31 H42 V29 H45 V34 H47 V38 H49 V40 H47 V43 H45 V45 H40 V47 H38 V52 H31 V54 H27 V51 H31 V49 H29 V47 H27 V45 H24 V43 H20 V40 H18 V38 H15 V36 H18 V32 H20 V29 H22 V27 H24 V20 H20 V22 H18 V25 H13 V22 H11 V20 H9 V25 H7 V29 H4 V27 H2 V29 H0 V31 H-4 V29 H-2 V25 H-5 V27 H-7 V29 H-9 V31 H-11 V27 H-9 V25 H-7 V18 H-11 V11 H-9 V9 H-7 V11 H-2 V13 H0 V11 H2 V7 H4 V5 H0 V7 H-2 V5 H-5 V2 H0 Z" fill="#E2A3CE" transform="translate(39 74)"/>
<path d="M0 0 H18 V2 H20 V0 H24 V2 H22 V5 H20 V9 H22 V7 H25 L26 3 V7 H29 V18 H22 V20 H20 V23 H18 V27 H20 V32 H22 V34 H24 V36 H26 L27 40 V76 H29 V79 H27 V92 H24 V96 H26 V94 H29 V92 H31 V95 H29 V97 H-3 V92 H-14 V90 h4 V88 H-8 L-7 85 V88 H4 V78 H2 V76 H0 V72 H2 V70 H4 V72 H6 V69 H4 V65 H2 V63 H4 V55 L11 56 V52 H4 V54 H2 V51 L0 50 H4 V47 H2 V45 H-1 V37 H-3 V34 H4 V30 H6 V27 H4 V29 H1 V32 H-3 V29 H-1 V27 H-3 V25 H-1 L-2 20 H0 V23 H2 V18 H-1 V16 H-3 V14 H-1 L0 11 H2 V9 H4 V3 H0 Z" fill="#4D3F5E" transform="translate(122 76)"/>
<path d="M0 0 H20 V2 H22 V0 H31 V2 H33 V5 H44 V9 H49 V11 H51 V13 H56 V18 H58 V22 H60 V27 H62 V29 H60 V31 H62 V36 H65 V43 H62 V40 H60 V43 H56 V45 H53 V31 H56 V27 H51 V22 H49 V18 H45 V11 H42 V13 H40 V11 H38 V9 H29 V7 H22 V4 H20 V7 H0 V9 H-7 V13 H-9 V9 H-12 v4 H-16 v5 H-18 v4 H-21 v3 H-23 v6 H-25 V60 H-30 v2 H-32 V56 H-36 V52 h2 V49 h7 V47 H-29 V45 H-32 V40 h3 V38 H-31 V34 h4 V31 H-29 V29 h2 V27 H-29 V23 h2 V18 h2 V13 h5 V11 h2 V9 H-14 V5 H-5 V2 H0 Z" fill="#E8A7D3" transform="translate(75 7)"/>
<path d="M0 0 H50 V5 H59 V9 H66 V13 H71 V18 H73 V22 H75 V27 H77 V38 H73 V27 H68 V23 H66 V18 H61 V16 H59 V14 H54 V10 H43 V7 H41 V5 H32 V7 H30 V5 H10 V7 H5 V10 H-4 V14 H-8 V16 H-10 v2 H-18 v5 H-20 v4 H-22 V38 H-27 V27 h3 V22 h2 V18 h2 V13 h4 L-15 9 H-9 L-8 4 H0 Z" fill="#38324C" transform="translate(65 2)"/>
<path d="M0 0 H2 V3 H9 V5 H18 V7 H20 V9 H22 V7 H25 V14 H29 V18 H31 V23 H36 V27 H33 V41 H36 V39 H40 V36 H42 V39 H45 V32 H42 V27 H40 V25 H42 V23 H40 V18 H43 V29 H47 V59 H31 V32 H22 V23 H19 V19 H13 V10 L0 9 V7 H-2 V3 H0 Z" fill="#6B5172" transform="translate(95 11)"/>
<path d="M0 0 H12 V4 H14 V94 H12 V96 H9 V98 H7 V94 H10 V81 H12 V78 H10 L9 38 H7 V36 H5 V34 H3 V29 H1 V25 H3 V22 H5 V20 H12 V9 H5 V11 H3 V7 H5 V4 H7 V2 H3 V4 H1 Z" fill="#B57EA8" transform="translate(139 74)"/>
<path d="M0 0 H18 L22 2 H18 V4 H20 V6 H31 L33 7 V11 H-2 V16 H-9 V20 H-11 v9 H-16 V20 h3 L-14 14 L-16 13 h2 V11 h3 V7 H-7 V2 H0 Z" fill="#453A56" transform="translate(75 14)"/>
<path d="M0 0 H3 V11 H7 V41 H-9 V23 H-4 V21 H0 V18 H2 V21 H5 V14 H2 V9 H0 V7 H2 V5 H0 Z" fill="#836285" transform="translate(135 29)"/>
<path d="M0 0 H2 V11 H4 V56 H6 V58 H17 V60 H11 V62 H4 V60 H2 V58 H0 V45 H2 V40 H0 Z" fill="#AC759F" transform="translate(28 110)"/>
</svg>
